# This file uses centimeters as units for non-parametric coordinates.

mtllib STAGE02.mtl
g default
v 29.069202 -11.108821 32.279180
v 30.057923 -11.108821 32.279180
v 29.069202 -10.603774 32.279180
v 30.057923 -10.603774 32.279180
v 29.069202 -10.603774 -32.279180
v 30.057923 -10.603774 -32.279180
v 29.069202 -11.108821 -32.279180
v 30.057923 -11.108821 -32.279180
vt 0.973411 0.164825
vt 0.965763 0.916007
vt 0.038799 0.290940
vt 0.041273 0.139637
vt 0.848981 0.865903
vt 0.966783 0.257153
vt 0.848981 0.916636
vt 0.966985 0.916636
vt 0.973616 0.054194
vt 0.973616 0.139637
vt 0.041068 0.164825
vt 0.041068 0.204860
vt 0.966985 0.865903
vt 0.966582 0.295769
vt 0.041273 0.054194
vt 0.965763 0.966740
vt 0.039000 0.252324
vt 0.847759 0.916007
vt 0.847759 0.966740
vt 0.973411 0.204860
vn 0.000000 0.000000 1.000000
vn 0.000000 0.000000 1.000000
vn 0.000000 0.000000 1.000000
vn 0.000000 0.000000 1.000000
vn 0.000000 1.000000 0.000000
vn 0.000000 1.000000 0.000000
vn 0.000000 1.000000 0.000000
vn 0.000000 1.000000 0.000000
vn 0.000000 0.000000 -1.000000
vn 0.000000 0.000000 -1.000000
vn 0.000000 0.000000 -1.000000
vn 0.000000 0.000000 -1.000000
vn 1.000000 0.000000 0.000000
vn 1.000000 0.000000 0.000000
vn 1.000000 0.000000 0.000000
vn 1.000000 0.000000 0.000000
vn -1.000000 0.000000 0.000000
vn -1.000000 0.000000 0.000000
vn -1.000000 0.000000 0.000000
vn -1.000000 0.000000 0.000000
s off
g pCube21
usemtl initialShadingGroup
f 1/18/1 2/2/2 4/16/3 3/19/4
f 3/3/5 4/17/6 6/6/7 5/14/8
f 5/5/9 6/13/10 8/8/11 7/7/12
f 2/15/13 8/9/14 6/10/15 4/4/16
f 7/11/17 1/1/18 3/20/19 5/12/20
g default
v 29.958709 -11.082264 31.840319
v 29.958709 -11.082264 -33.135292
v 35.841074 -11.107450 30.479423
v 35.841074 -11.107450 -31.774401
v 44.071298 -11.145199 28.292827
v 44.071298 -11.145199 -29.587803
v 53.059022 -11.192973 25.354621
v 53.059022 -11.192979 -26.649599
v 57.122221 -11.246215 21.779385
v 57.122221 -11.246215 -23.074352
v 60.370019 -11.299747 17.702737
v 60.370019 -11.299743 -18.997703
v 62.729703 -11.348302 13.273519
v 62.729679 -11.348302 -14.568487
v 64.167794 -11.387004 8.645262
v 64.167756 -11.387006 -9.940224
v 64.688694 -11.411933 3.967710
v 64.688603 -11.411933 -5.262677
v 64.722590 -11.420535 -0.647485
v 29.801474 -31.239412 31.840319
v 29.801474 -31.239412 -33.135292
vt 0.597350 0.388112
vt 0.597350 0.981975
vt 0.809977 0.981975
vt 0.809977 0.388112
vt 0.408700 0.388112
vt 0.408700 0.981975
vt 0.331882 0.967890
vt 0.256660 0.947905
vt 0.174514 0.921050
vt 0.137378 0.888373
vt 0.107693 0.851114
vt 0.086126 0.810632
vt 0.072983 0.768331
vt 0.068222 0.725579
vt 0.067912 0.683397
vt 0.068222 0.641215
vt 0.072983 0.598463
vt 0.086127 0.556162
vt 0.107693 0.515680
vt 0.137378 0.478420
vt 0.174514 0.445743
vt 0.256660 0.418889
vt 0.331882 0.398904
vn 0.007800 0.999970 -0.000000
vn 0.007800 0.999969 -0.000000
vn 0.007800 0.999970 -0.000000
vn 0.007800 0.999970 -0.000000
vn 0.007800 0.999969 -0.000000
vn 0.007800 0.999969 -0.000000
vn 0.007800 0.999969 -0.000000
vn 0.007800 0.999969 -0.000000
vn 0.007800 0.999969 -0.000000
vn 0.007800 0.999969 -0.000000
vn 0.007800 0.999969 -0.000000
vn 0.007800 0.999970 -0.000000
vn 0.007800 0.999970 -0.000000
vn 0.007800 0.999969 -0.000000
vn 0.007800 0.999969 -0.000000
vn 0.007800 0.999970 -0.000000
vn 0.007800 0.999970 -0.000000
vn 0.007800 0.999969 -0.000000
vn 0.007800 0.999970 -0.000000
vn -0.999970 0.007800 -0.000000
vn -0.999970 0.007800 -0.000000
vn -0.999970 0.007800 -0.000000
vn -0.999970 0.007800 -0.000000
s off
g pCube21 pasted__pSphere5
usemtl texturedFacets16
f 10/25/21 9/26/22 11/27/23 13/28/24 15/29/25 17/30/26 19/31/27 21/32/28 23/33/29 25/34/30 27/35/31 26/36/32 24/37/33 22/38/34 20/39/35 18/40/36 16/41/37 14/42/38 12/43/39
f 9/21/40 10/22/41 29/23/42 28/24/43
