# This file uses centimeters as units for non-parametric coordinates.

mtllib cown.mtl
g default
v -17.711030 10.947594 21.602104
v -17.711027 -11.842321 21.602104
v -15.039938 -11.842321 21.742625
v -15.039935 10.947594 21.742626
v -17.978537 11.396522 22.021655
v -17.978537 -12.291245 22.021655
v -14.817926 -12.291245 22.187929
v -14.817926 11.396522 22.187929
v -18.177536 11.803235 21.577562
v -18.177538 -12.697956 21.577562
v -14.573428 -12.697957 21.767168
v -14.573429 11.803235 21.767168
v -17.933039 11.396522 21.156801
v -17.933039 -12.291245 21.156801
v -14.772428 -12.291245 21.323075
v -14.772427 11.396521 21.323075
v -16.182254 -12.291245 22.291484
v -16.233587 -12.697957 22.722408
v -16.227753 -12.291245 23.156338
v -16.173453 -11.842321 22.725571
vt 0.000000 1.000000
vt 0.250000 1.000000
vt 0.500000 1.000000
vt 0.750000 1.000000
vt 1.000000 1.000000
vt 0.000000 0.750000
vt 0.250000 0.750000
vt 0.500000 0.750000
vt 0.750000 0.750000
vt 1.000000 0.750000
vt 0.000000 0.500000
vt 0.250000 0.500000
vt 0.500000 0.500000
vt 0.750000 0.500000
vt 1.000000 0.500000
vt 0.000000 0.250000
vt 0.250000 0.250000
vt 0.500000 0.250000
vt 0.750000 0.250000
vt 1.000000 0.250000
vt 0.000000 0.000000
vt 0.250000 0.000000
vt 0.500000 0.000000
vt 0.750000 0.000000
vt 1.000000 0.000000
vt 0.358887 0.250000
vt 0.358887 0.500000
vt 0.358887 0.750000
vt 0.358887 0.000000
vt 0.358887 1.000000
vn 0.843186 0.000000 0.537622
vn 0.843186 0.000000 0.537622
vn 0.843186 0.000000 0.537622
vn 0.843186 0.000000 0.537622
vn -0.010961 0.757097 0.653211
vn -0.403578 0.701239 0.587698
vn -0.403578 0.701239 0.587698
vn -0.068163 0.756626 0.650286
vn -0.894942 0.000000 0.446182
vn -0.894942 0.000000 0.446182
vn -0.894942 0.000000 0.446182
vn -0.894942 0.000000 0.446182
vn -0.037812 -0.694243 0.718747
vn -0.037812 -0.694243 0.718747
vn -0.037812 -0.694243 0.718747
vn -0.037812 -0.694243 0.718747
vn -0.912568 0.000000 0.408925
vn -0.912568 0.000000 0.408925
vn -0.912568 0.000000 0.408925
vn -0.912568 0.000000 0.408925
vn -0.039104 -0.667675 0.743425
vn -0.412733 -0.618165 0.668972
vn -0.412733 -0.618165 0.668972
vn -0.042052 -0.667670 0.743268
vn 0.864624 0.000000 0.502419
vn 0.864624 0.000000 0.502419
vn 0.864624 0.000000 0.502419
vn 0.864624 0.000000 0.502419
vn -0.035967 0.728905 0.683670
vn -0.035967 0.728905 0.683670
vn -0.035967 0.728905 0.683670
vn -0.035966 0.728905 0.683670
vn -0.864624 0.000000 -0.502420
vn -0.864624 0.000000 -0.502420
vn -0.864624 0.000000 -0.502420
vn -0.864624 0.000000 -0.502420
vn 0.057721 -0.776328 -0.627680
vn 0.356374 -0.734402 -0.577625
vn 0.356374 -0.734402 -0.577625
vn 0.015981 -0.776431 -0.629999
vn 0.912569 0.000000 -0.408923
vn 0.912569 0.000000 -0.408923
vn 0.912569 0.000000 -0.408923
vn 0.912569 0.000000 -0.408923
vn 0.035967 0.728905 -0.683670
vn 0.035967 0.728905 -0.683670
vn 0.035967 0.728905 -0.683670
vn 0.035967 0.728905 -0.683670
vn 0.894942 0.000000 -0.446182
vn 0.894942 0.000000 -0.446182
vn 0.894942 0.000000 -0.446182
vn 0.894942 0.000000 -0.446182
vn 0.048102 0.610076 -0.790881
vn 0.042858 0.610056 -0.791198
vn 0.472054 0.551931 -0.687413
vn 0.472054 0.551931 -0.687413
vn -0.843186 0.000000 -0.537622
vn -0.843186 0.000000 -0.537622
vn -0.843186 0.000000 -0.537622
vn -0.843186 0.000000 -0.537622
vn 0.037811 -0.694244 -0.718746
vn 0.037811 -0.694244 -0.718746
vn 0.037811 -0.694244 -0.718746
vn 0.037811 -0.694244 -0.718746
vn -0.373966 -0.709898 -0.596820
vn -0.373966 -0.709898 -0.596820
vn 0.427923 -0.592021 0.682930
vn 0.427923 -0.592021 0.682930
vn 0.455197 0.663930 0.593290
vn 0.455197 0.663930 0.593290
vn -0.526807 0.501019 -0.686625
vn -0.526807 0.501019 -0.686625
s off
g pTorus11
usemtl initialShadingGroup
f 2/2/1 1/1/2 5/6/3 6/7/4
s 1
f 20/30/5 2/2/6 6/7/7 19/28/8
s off
f 4/4/9 3/3/10 7/8/11 8/9/12
f 1/5/13 4/4/14 8/9/15 5/10/16
f 6/7/17 5/6/18 9/11/19 10/12/20
s 2
f 19/28/21 6/7/22 10/12/23 18/27/24
s off
f 8/9/25 7/8/26 11/13/27 12/14/28
f 5/10/29 8/9/30 12/14/31 9/15/32
f 10/12/33 9/11/34 13/16/35 14/17/36
s 3
f 18/27/37 10/12/38 14/17/39 17/26/40
s off
f 12/14/41 11/13/42 15/18/43 16/19/44
f 9/15/45 12/14/46 16/19/47 13/20/48
f 14/17/49 13/16/50 1/21/51 2/22/52
s 4
f 20/29/53 17/26/54 14/17/55 2/22/56
s off
f 16/19/57 15/18/58 3/23/59 4/24/60
f 13/20/61 16/19/62 4/24/63 1/25/64
s 3
f 11/13/65 18/27/37 17/26/40 15/18/66
s 2
f 7/8/67 19/28/21 18/27/24 11/13/68
s 1
f 3/3/69 20/30/5 19/28/8 7/8/70
s 4
f 15/18/71 17/26/54 20/29/53 3/23/72
