# This file uses centimeters as units for non-parametric coordinates.

mtllib window.mtl
g default
v -13.751876 9.696463 128.870813
v -13.460302 11.537398 128.870813
v -12.614117 13.198129 128.870813
v -11.296152 14.516093 128.870813
v -9.635421 15.362278 128.870813
v -7.794486 15.653853 128.870813
v -5.953551 15.362278 128.870813
v -4.292820 14.516093 128.870813
v -2.974856 13.198129 128.870813
v -2.128671 11.537398 128.870813
v -1.837096 9.696463 128.870813
v -13.751876 9.696463 127.101539
v -13.460302 11.537398 127.101539
v -12.614117 13.198129 127.101539
v -11.296152 14.516093 127.101539
v -9.635421 15.362278 127.101539
v -7.794486 15.653853 127.101539
v -5.953551 15.362278 127.101539
v -4.292820 14.516093 127.101539
v -2.974856 13.198129 127.101539
v -2.128671 11.537398 127.101539
v -1.837096 9.696463 127.101539
v -14.003574 -34.954397 128.870813
v -14.003574 -34.954397 127.101539
v -1.585400 -34.954391 128.870813
v -1.585400 -34.954391 127.101539
v -7.794486 -35.230962 128.870813
v -7.794486 -35.230962 127.101539
v -13.441414 -34.413925 127.101539
v -7.794486 -34.684553 127.101539
v -13.212503 9.277996 127.101539
v -12.947329 11.079395 127.101539
v -12.177755 12.704459 127.101539
v -10.979117 13.994118 127.101539
v -9.468745 14.822130 127.101539
v -7.794486 15.107444 127.101539
v -6.120226 14.822130 127.101539
v -4.609855 13.994118 127.101539
v -3.411217 12.704459 127.101539
v -2.641645 11.079395 127.101539
v -2.376468 9.277996 127.101539
v -2.147560 -34.413925 127.101539
v -13.441413 -34.413925 127.881322
v -7.794485 -34.684553 127.881322
v -13.212502 9.277996 127.881322
v -12.947328 11.079395 127.881322
v -12.177754 12.704459 127.881322
v -10.979115 13.994118 127.881322
v -9.468744 14.822130 127.881322
v -7.794484 15.107444 127.881322
v -6.120225 14.822130 127.881322
v -4.609853 13.994118 127.881322
v -3.411215 12.704459 127.881322
v -2.641644 11.079395 127.881322
v -2.376467 9.277996 127.881322
v -2.147559 -34.413925 127.881322
vt 0.060937 0.882924
vt 0.066573 0.919103
vt 0.066573 0.919103
vt 0.060937 0.882924
vt 0.082928 0.951740
vt 0.082928 0.951740
vt 0.108401 0.977641
vt 0.108401 0.977641
vt 0.140499 0.994270
vt 0.140499 0.994270
vt 0.176081 1.000000
vt 0.176081 1.000000
vt 0.211662 0.994270
vt 0.211662 0.994270
vt 0.243760 0.977641
vt 0.243760 0.977641
vt 0.269234 0.951740
vt 0.269234 0.951740
vt 0.285589 0.919103
vt 0.285589 0.919103
vt 0.291224 0.882924
vt 0.291224 0.882924
vt 0.056072 0.005435
vt 0.056072 0.005435
vt 0.296089 0.005435
vt 0.296089 0.005435
vt 0.176081 0.000000
vt 0.500000 0.010738
vt 0.066938 0.016057
vt 0.071362 0.874700
vt 0.076487 0.910102
vt 0.091361 0.942038
vt 0.114529 0.967383
vt 0.143721 0.983655
vt 0.176081 0.989262
vt 0.208441 0.983655
vt 0.237633 0.967383
vt 0.260800 0.942038
vt 0.275674 0.910102
vt 0.280799 0.874700
vt 0.285224 0.016057
vt 0.176081 0.000000
vt 0.066938 0.016057
vt 0.176081 0.010738
vt 0.071362 0.874700
vt 0.076487 0.910102
vt 0.091361 0.942038
vt 0.114529 0.967383
vt 0.143721 0.983655
vt 0.176081 0.989262
vt 0.208441 0.983655
vt 0.237633 0.967383
vt 0.260800 0.942038
vt 0.275674 0.910102
vt 0.280799 0.874700
vt 0.285224 0.016057
vt 0.609143 0.016057
vt 0.176081 0.010738
vt 0.604719 0.874700
vt 0.599594 0.910102
vt 0.584719 0.942038
vt 0.561552 0.967383
vt 0.532360 0.983655
vt 0.500000 0.989262
vt 0.467640 0.983655
vt 0.438448 0.967383
vt 0.415281 0.942038
vt 0.400407 0.910102
vt 0.395281 0.874700
vt 0.390857 0.016057
vn -0.999932 0.011685 0.000000
vn -0.951057 0.309017 0.000000
vn -0.951057 0.309017 0.000000
vn -0.999932 0.011685 0.000000
vn -0.809017 0.587786 0.000000
vn -0.809017 0.587786 0.000000
vn -0.587785 0.809017 0.000000
vn -0.587785 0.809017 0.000000
vn -0.309017 0.951057 0.000000
vn -0.309017 0.951057 0.000000
vn 0.000000 1.000000 0.000000
vn 0.000000 1.000000 0.000000
vn 0.309017 0.951057 0.000000
vn 0.309017 0.951057 0.000000
vn 0.587785 0.809017 0.000000
vn 0.587785 0.809017 0.000000
vn 0.809017 0.587785 0.000000
vn 0.809017 0.587785 0.000000
vn 0.951057 0.309017 0.000000
vn 0.951057 0.309017 0.000000
vn 0.999932 0.011685 0.000000
vn 0.999932 0.011685 0.000000
vn -0.999984 0.005637 0.000000
vn -0.999984 0.005637 0.000000
vn 0.999984 0.005637 0.000000
vn 0.999984 0.005637 0.000000
vn 0.000000 0.000000 1.000000
vn 0.000000 0.000000 1.000000
vn 0.000000 0.000000 1.000000
vn 0.000000 0.000000 1.000000
vn 0.000000 0.000000 1.000000
vn 0.000000 0.000000 1.000000
vn 0.000000 0.000000 1.000000
vn 0.000000 0.000000 1.000000
vn 0.000000 0.000000 1.000000
vn 0.000000 0.000000 1.000000
vn 0.000000 0.000000 1.000000
vn 0.000000 0.000000 1.000000
vn 0.000000 0.000000 1.000000
vn 0.000000 0.000000 1.000000
vn 0.000000 0.000000 -1.000000
vn 0.000000 0.000000 -1.000000
vn 0.000000 0.000000 -1.000000
vn 0.000000 0.000000 -1.000000
vn 0.000000 0.000000 -1.000000
vn 0.000000 0.000000 -1.000000
vn 0.000000 0.000000 -1.000000
vn 0.000000 0.000000 -1.000000
vn 0.000000 0.000000 -1.000000
vn 0.000000 0.000000 -1.000000
vn 0.000000 0.000000 -1.000000
vn 0.000000 0.000000 -1.000000
vn 0.000000 0.000000 -1.000000
vn 0.000000 0.000000 -1.000000
vn 0.000000 0.000000 -1.000000
vn 0.000000 0.000000 -1.000000
vn 0.000000 0.000000 -1.000000
vn 0.000000 0.000000 -1.000000
vn 0.000000 0.000000 -1.000000
vn 0.000000 0.000000 -1.000000
vn 0.000000 0.000000 -1.000000
vn 0.000000 0.000000 -1.000000
vn 0.000000 0.000000 -1.000000
vn 0.000000 0.000000 -1.000000
vn 0.000000 0.000000 -1.000000
vn 0.000000 0.000000 -1.000000
vn 0.000000 -0.000000 -1.000000
vn 0.000000 -0.000000 -1.000000
vn 0.000000 -0.000000 -1.000000
vn 0.000000 -0.000000 -1.000000
vn 0.000000 -0.000000 -1.000000
vn 0.000000 -0.000000 -1.000000
vn 0.000000 -0.000000 -1.000000
vn 0.000000 -0.000000 -1.000000
vn 0.000000 0.000000 -1.000000
vn 0.000000 0.000000 -1.000000
vn 0.000000 0.000000 -1.000000
vn 0.000000 0.000000 -1.000000
vn 0.000000 -0.000000 -1.000000
vn 0.000000 -0.000000 -1.000000
vn 0.000000 -0.000000 -1.000000
vn 0.000000 -0.000000 -1.000000
vn 0.000000 0.000000 -1.000000
vn 0.000000 0.000000 -1.000000
vn 0.000000 0.000000 -1.000000
vn 0.000000 0.000000 -1.000000
vn 0.000000 0.000000 -1.000000
vn 0.000000 0.000000 -1.000000
vn 0.000000 0.000000 -1.000000
vn 0.000000 0.000000 -1.000000
vn 0.000000 0.000000 -1.000000
vn 0.000000 0.000000 -1.000000
vn 0.000000 0.000000 -1.000000
vn 0.000000 0.000000 -1.000000
vn 0.000000 0.000000 -1.000000
vn 0.000000 0.000000 -1.000000
vn 0.000000 0.000000 -1.000000
vn 0.000000 0.000000 -1.000000
vn 0.000000 0.000000 -1.000000
vn 0.000000 0.000000 -1.000000
vn 0.000000 0.000000 -1.000000
vn 0.000000 0.000000 -1.000000
vn 0.000000 0.000000 -1.000000
vn 0.000000 0.000000 -1.000000
vn 0.000000 0.000000 -1.000000
vn 0.000000 0.000000 -1.000000
vn 0.000000 0.000000 -1.000000
vn 0.000000 0.000000 -1.000000
vn 0.000000 0.000000 -1.000000
vn 0.000000 0.000000 -1.000000
vn 0.000000 1.000000 -0.000000
vn 0.047870 0.998854 -0.000000
vn 0.047870 0.998854 -0.000000
vn 0.000000 1.000000 0.000000
vn 0.999986 -0.005239 -0.000002
vn 0.999941 -0.010860 -0.000002
vn 0.999941 -0.010860 -0.000002
vn 0.999986 -0.005239 -0.000002
vn 0.957301 -0.289093 -0.000002
vn 0.957301 -0.289093 -0.000002
vn 0.828747 -0.559624 -0.000002
vn 0.828747 -0.559624 -0.000002
vn 0.615871 -0.787847 -0.000001
vn 0.615871 -0.787847 -0.000001
vn 0.330009 -0.943978 -0.000001
vn 0.330009 -0.943978 -0.000001
vn 0.000000 -1.000000 -0.000000
vn -0.000000 -1.000000 -0.000000
vn -0.330009 -0.943978 0.000001
vn -0.330009 -0.943978 0.000001
vn -0.615871 -0.787847 0.000001
vn -0.615871 -0.787847 0.000001
vn -0.828747 -0.559624 0.000002
vn -0.828747 -0.559624 0.000002
vn -0.957301 -0.289093 0.000002
vn -0.957301 -0.289093 0.000002
vn -0.999941 -0.010860 0.000002
vn -0.999941 -0.010860 0.000002
vn -0.999986 -0.005239 0.000002
vn -0.999986 -0.005239 0.000002
vn -0.047870 0.998854 0.000000
vn -0.047870 0.998854 0.000000
s 1
g pCylinder1
usemtl texturedFacets22
f 1/1/1 2/2/2 13/3/3 12/4/4
f 2/2/2 3/5/5 14/6/6 13/3/3
f 3/5/5 4/7/7 15/8/8 14/6/6
f 4/7/7 5/9/9 16/10/10 15/8/8
f 5/9/9 6/11/11 17/12/12 16/10/10
f 6/11/11 7/13/13 18/14/14 17/12/12
f 7/13/13 8/15/15 19/16/16 18/14/14
f 8/15/15 9/17/17 20/18/18 19/16/16
f 9/17/17 10/19/19 21/20/20 20/18/18
f 10/19/19 11/21/21 22/22/22 21/20/20
f 1/1/1 12/4/4 24/23/23 23/24/24
f 22/22/22 11/21/21 25/25/25 26/26/26
s off
f 11/21/27 10/19/28 9/17/29 8/15/30 7/13/31 6/11/32 5/9/33 4/7/34 3/5/35 2/2/36 1/1/37 23/24/38 27/27/39 25/25/40
f 44/28/41 43/70/42 45/69/43 46/68/44 47/67/45 48/66/46 49/65/47 50/64/48 51/63/49 52/62/50 53/61/51 54/60/52 55/59/53 56/57/54
f 28/42/55 24/23/56 29/43/57 30/44/58
f 24/23/59 12/4/60 31/45/61 29/43/62
f 12/4/63 13/3/64 32/46/65 31/45/66
f 13/3/67 14/6/68 33/47/69 32/46/70
f 14/6/71 15/8/72 34/48/73 33/47/74
f 15/8/75 16/10/76 35/49/77 34/48/78
f 16/10/79 17/12/80 36/50/81 35/49/82
f 17/12/83 18/14/84 37/51/85 36/50/86
f 18/14/87 19/16/88 38/52/89 37/51/90
f 19/16/91 20/18/92 39/53/93 38/52/94
f 20/18/95 21/20/96 40/54/97 39/53/98
f 21/20/99 22/22/100 41/55/101 40/54/102
f 22/22/103 26/26/104 42/56/105 41/55/106
f 26/26/107 28/42/108 30/44/109 42/56/110
s 2
f 30/44/111 29/43/112 43/29/113 44/58/114
s 3
f 29/43/115 31/45/116 45/30/117 43/29/118
f 31/45/116 32/46/119 46/31/120 45/30/117
f 32/46/119 33/47/121 47/32/122 46/31/120
f 33/47/121 34/48/123 48/33/124 47/32/122
f 34/48/123 35/49/125 49/34/126 48/33/124
f 35/49/125 36/50/127 50/35/128 49/34/126
f 36/50/127 37/51/129 51/36/130 50/35/128
f 37/51/129 38/52/131 52/37/132 51/36/130
f 38/52/131 39/53/133 53/38/134 52/37/132
f 39/53/133 40/54/135 54/39/136 53/38/134
f 40/54/135 41/55/137 55/40/138 54/39/136
f 41/55/137 42/56/139 56/41/140 55/40/138
s 2
f 42/56/141 30/44/111 44/58/114 56/41/142
